<svg xmlns="http://www.w3.org/2000/svg" width="2000" height="2000" viewBox="0 0 2000 2000" version="1.1">
	<path d="M 983.500 268.376 C 940.022 282.579, 880.524 349.365, 833.724 436.500 C 824.837 453.046, 827.479 451.417, 798 458.532 C 718.131 477.809, 682.400 487.703, 634 503.944 C 591.559 518.185, 566.119 528.390, 535.500 543.454 C 486.370 567.626, 454.194 589.695, 423.969 619.953 C 381.393 662.574, 357.124 712.713, 350.584 771.562 C 345.510 817.214, 349.401 859.332, 362.171 897 C 366.706 910.378, 378.359 934.588, 386.478 947.500 C 401.652 971.631, 425.196 997.742, 447.080 1014.707 C 483.251 1042.748, 528.509 1063.221, 576.918 1073.442 C 590.255 1076.258, 617.403 1080, 624.496 1080 L 628.915 1080 631.029 1072.904 C 632.191 1069.002, 632.997 1065.692, 632.821 1065.551 C 632.644 1065.409, 629.723 1064.761, 626.329 1064.112 C 615.563 1062.051, 587.830 1054.341, 577.480 1050.532 C 552.327 1041.275, 521.719 1023.540, 500.989 1006.214 C 463.215 974.643, 437.068 926.806, 428.087 872.833 C 421.624 833.996, 423.098 779.055, 431.624 741.043 C 448.698 664.915, 494.371 608.876, 575.339 564.710 C 611.676 544.888, 659.451 526.344, 737 501.960 C 761.778 494.168, 810.307 479.974, 810.728 480.395 C 810.904 480.571, 808.837 485.616, 806.135 491.607 C 777.496 555.099, 751.329 645.450, 741.581 714.500 C 734.852 762.165, 733.497 784.095, 733.518 845 C 733.545 926.653, 736.752 962.538, 758.984 1130 C 778.349 1275.862, 783.146 1329.544, 783.379 1403 C 783.497 1440.574, 782.954 1449.270, 778.846 1475.500 C 770.191 1530.767, 749.915 1580.594, 719.639 1621 C 710.090 1633.744, 690.929 1652.783, 677.735 1662.637 C 648.131 1684.746, 612.798 1699.432, 574.500 1705.547 C 561.147 1707.679, 520.521 1708.629, 507.410 1707.116 C 476.768 1703.580, 450.350 1694.614, 424.414 1678.948 C 398.718 1663.427, 375.696 1640.907, 358.017 1614 C 339.802 1586.276, 324.796 1544.775, 320.748 1510.929 C 320.079 1505.335, 319.033 1500.566, 318.423 1500.332 C 317.345 1499.919, 281.119 1510.548, 280.086 1511.581 C 279.191 1512.475, 282.851 1534.991, 285.947 1547.645 C 293.266 1577.552, 307.529 1607.436, 326.931 1633.512 C 336.602 1646.509, 360.692 1670.510, 374 1680.405 C 423.702 1717.362, 485.484 1735.064, 550.642 1731.018 C 578.501 1729.287, 604.731 1724.186, 625.899 1716.381 C 639.400 1711.403, 663.633 1699.380, 675.767 1691.639 C 707.045 1671.687, 735.629 1643.668, 757.634 1611.391 C 798.709 1551.142, 827.336 1466.817, 837.883 1375 C 842.168 1337.704, 842.500 1330.653, 842.500 1277 C 842.500 1212.127, 841.538 1196.959, 828.011 1048.500 C 815.167 907.537, 813.007 870.864, 813.025 794 C 813.045 703.022, 817.307 647.341, 829.530 578.351 C 836.226 540.560, 847.169 496.337, 855.682 472.665 L 858.500 464.829 869.500 460.078 C 947.657 426.322, 1019.132 359.313, 1027.909 311.566 C 1030.817 295.750, 1026.396 279.610, 1017.034 271.866 C 1009.609 265.724, 995.965 264.304, 983.500 268.376 M 986 290.571 C 982.975 291.363, 976.900 293.789, 972.500 295.963 C 943.992 310.049, 912.229 347.130, 888.595 393.917 C 880.470 410.002, 870.681 432.014, 871.354 432.687 C 871.947 433.280, 894.990 421.175, 906.252 414.354 C 951.520 386.938, 987.100 351.331, 999.862 320.676 C 1005.182 307.898, 1005.910 293.601, 1001.408 290.309 C 999.118 288.635, 993.001 288.739, 986 290.571 M 1259.500 817.612 C 1244.994 821.106, 1225.735 833.574, 1213.863 847.158 C 1197.237 866.182, 1180.030 896.469, 1165.379 932.500 L 1160.500 944.500 1159.731 933 C 1157.206 895.216, 1151.452 872.815, 1139.796 855.387 C 1128.196 838.043, 1109.756 828.750, 1090.309 830.446 C 1074.044 831.864, 1062.342 837.583, 1049.380 850.448 C 1038.909 860.842, 1031.060 872.260, 1021.687 890.735 C 1013.550 906.776, 999.007 942.395, 1000.157 943.467 C 1001.364 944.592, 1022.258 949.119, 1022.878 948.390 C 1023.296 947.901, 1026.013 940.975, 1028.916 933 C 1039.825 903.031, 1053.527 878.909, 1066.066 867.599 C 1073.653 860.755, 1078.901 858.539, 1087.257 858.649 C 1103.881 858.867, 1112.292 870.034, 1116.143 897 C 1117.971 909.801, 1118.015 989.591, 1116.205 1010 C 1111.544 1062.549, 1101.114 1135.259, 1090.638 1188.235 C 1087.712 1203.027, 1087.512 1205.023, 1088.914 1205.431 C 1089.786 1205.684, 1098.375 1207.729, 1108 1209.975 C 1117.625 1212.220, 1125.992 1214.229, 1126.593 1214.437 C 1127.287 1214.678, 1130.879 1199.624, 1136.444 1173.158 C 1160.364 1059.392, 1180.937 982.927, 1202.674 927 C 1209.041 910.618, 1222.738 883.129, 1230.079 872 C 1238.184 859.713, 1250.538 847.289, 1258.500 843.417 C 1263.695 840.891, 1265.640 840.501, 1273 840.505 C 1280.257 840.510, 1282.327 840.916, 1287.161 843.285 C 1296.839 848.029, 1303.602 857.700, 1308.062 873.171 C 1313.583 892.329, 1310.704 939.060, 1298.923 1021.500 C 1294.283 1053.973, 1281.429 1130.878, 1277.111 1152 C 1275.481 1159.975, 1274.452 1166.771, 1274.824 1167.102 C 1275.458 1167.668, 1313.179 1174.061, 1315.635 1174.019 C 1316.290 1174.008, 1317.272 1170.513, 1317.958 1165.750 C 1323.186 1129.446, 1337.514 1064.842, 1349.429 1023.856 C 1372.104 945.854, 1400.679 892.632, 1426.780 879.789 C 1432.953 876.752, 1434.194 876.504, 1442.982 876.547 C 1450.960 876.587, 1453.309 876.987, 1457.500 879.023 C 1468.009 884.128, 1475.142 894.534, 1479.262 910.766 C 1481.219 918.481, 1481.469 921.950, 1481.401 940.500 C 1481.315 963.620, 1480.202 974.157, 1472.522 1024.500 C 1463.517 1083.534, 1461.472 1104.776, 1462.316 1130.500 C 1462.901 1148.313, 1464.580 1160.112, 1468.082 1171 C 1476.996 1198.719, 1497.235 1213.565, 1528.939 1215.641 C 1552.107 1217.157, 1570.688 1209.829, 1589.663 1191.691 C 1611.930 1170.407, 1632.362 1140.293, 1654.248 1096.500 C 1665.286 1074.412, 1671.196 1060.967, 1688.530 1018.500 C 1696.387 999.250, 1705.938 976.075, 1709.755 967 C 1713.572 957.925, 1716.592 950.366, 1716.467 950.202 C 1716.127 949.760, 1693.710 943.944, 1693.500 944.243 C 1693.401 944.384, 1684.942 964.095, 1674.702 988.044 C 1638.169 1073.483, 1620.846 1108.585, 1599.467 1140.500 C 1583.050 1165.008, 1570.906 1177.244, 1558.243 1182.034 C 1553.446 1183.849, 1551.100 1184.125, 1544 1183.712 C 1523.001 1182.489, 1513.704 1171.659, 1509.531 1143.556 C 1506.904 1125.860, 1507.523 1111.535, 1512.972 1063.933 C 1524.889 959.849, 1525.597 942.294, 1518.933 916.236 C 1516.707 907.536, 1511.640 895.377, 1506.831 887.200 C 1501.794 878.636, 1488.837 866.147, 1480.455 861.779 C 1468.267 855.426, 1459.684 853.532, 1443 853.515 C 1425.908 853.497, 1419.946 854.796, 1406.500 861.467 C 1395.194 867.076, 1386.647 873.530, 1376.430 884.172 C 1366.709 894.298, 1361.411 901.326, 1353.452 914.656 L 1347.389 924.812 1346.228 909.656 C 1343.573 874.967, 1334.922 850.588, 1319.425 834.114 C 1310.989 825.146, 1303.910 820.918, 1292.404 817.975 C 1283.177 815.616, 1268.463 815.453, 1259.500 817.612" stroke="none" fill="#000000" fill-rule="evenodd"/>
</svg>