<svg xmlns="http://www.w3.org/2000/svg" width="2000" height="2000" viewBox="0 0 2000 2000" version="1.1">
	<path d="M 415.718 817.028 C 407.834 819.016, 402.224 823.650, 400.136 829.899 C 399.310 832.370, 399 870.496, 399 969.544 C 399 1102.848, 398.957 1105.929, 397.005 1112.248 C 394.469 1120.460, 388.808 1127.137, 382.232 1129.674 C 378.214 1131.225, 374.484 1131.499, 357.500 1131.491 C 338.674 1131.482, 337.229 1131.347, 332.877 1129.190 C 327.136 1126.345, 324.912 1123.995, 321.343 1117 C 318.593 1111.611, 318.526 1111.066, 317.978 1090 C 317.382 1067.092, 316.952 1065.012, 311.845 1060.367 C 307.138 1056.086, 302.807 1054.638, 293.394 1054.199 C 277.172 1053.442, 267.703 1058.179, 265.147 1068.329 C 263.706 1074.054, 263.639 1106.154, 265.046 1116.678 C 267.522 1135.180, 275.138 1149.390, 287.687 1158.920 C 295.589 1164.921, 311.842 1173.153, 320.500 1175.540 C 328.379 1177.711, 371.459 1178.758, 385.383 1177.115 C 403.628 1174.964, 422.120 1166.113, 434.530 1153.593 C 442.530 1145.522, 447.034 1137.713, 450.262 1126.314 L 452.475 1118.500 452.803 978 C 453.045 874.657, 452.827 836.095, 451.980 832.187 C 450.581 825.732, 446.584 820.860, 440.737 818.486 C 435.777 816.471, 421.276 815.626, 415.718 817.028 M 545.500 816.618 C 539.334 818.197, 536.483 819.515, 533.425 822.200 C 526.617 828.178, 527 817.697, 527 998 C 527 1178.303, 526.617 1167.822, 533.425 1173.800 C 538.386 1178.156, 543.223 1179.495, 554 1179.495 C 568.160 1179.495, 575.216 1176.138, 579.120 1167.541 C 580.877 1163.673, 580.957 1156.415, 580.978 998.399 C 580.994 877.758, 580.694 832.383, 579.864 829.899 C 577.019 821.386, 569.073 816.888, 556.046 816.416 C 551.346 816.245, 546.600 816.336, 545.500 816.618 M 762 816.626 C 760.625 816.820, 755.675 817.487, 751 818.107 C 746.325 818.728, 741.117 819.801, 739.427 820.493 C 735.069 822.276, 729.199 827.689, 727.051 831.905 C 726.044 833.882, 701.724 906.825, 673.007 994 C 616.220 1166.388, 618.056 1160.022, 623.012 1167.371 C 629.301 1176.695, 649.603 1183.596, 660.332 1180.056 C 664.754 1178.596, 671.335 1171.367, 673.429 1165.667 C 674.271 1163.375, 696.626 1094.900, 723.106 1013.500 C 749.586 932.100, 771.532 864.989, 771.876 864.364 C 772.219 863.739, 794.285 929.889, 820.910 1011.364 C 847.536 1092.839, 870.209 1161.938, 871.295 1164.919 C 873.692 1171.495, 879.882 1178.476, 884.739 1180.079 C 892.335 1182.586, 907.383 1179.127, 915.982 1172.898 C 921.407 1168.969, 924.408 1162.485, 923.757 1156.101 C 923.499 1153.570, 915.396 1127.425, 905.750 1098 C 896.104 1068.575, 873.031 998.150, 854.478 941.500 C 835.924 884.850, 820.079 837.192, 819.265 835.593 C 817.278 831.687, 809.501 823.472, 805.377 820.924 C 800.172 817.707, 773.234 815.038, 762 816.626 M 1228.250 817.450 C 1220.500 819.216, 1210.393 824.115, 1205.033 828.704 C 1196.212 836.254, 1195.885 837.109, 1179.321 895.892 C 1163.760 951.111, 1129.565 1073.342, 1127.745 1080.250 C 1127.201 1082.313, 1126.474 1083.998, 1126.128 1083.995 C 1125.783 1083.993, 1109.792 1030.330, 1090.594 964.745 C 1068.203 888.255, 1054.605 843.413, 1052.667 839.679 C 1049.182 832.965, 1043.540 827.629, 1035.294 823.247 C 1026.843 818.757, 1018.821 817, 1006.766 817 C 983.946 817, 965.436 825.564, 962.072 837.679 C 961.344 840.300, 961.009 892.257, 961.006 1003.093 L 961 1164.685 963.282 1169.093 C 965.100 1172.605, 966.776 1174.109, 971.532 1176.500 C 976.911 1179.204, 978.437 1179.500, 987 1179.500 C 1001.155 1179.500, 1008.215 1176.139, 1012.120 1167.541 C 1013.868 1163.694, 1013.957 1157.772, 1013.978 1043.892 L 1014 924.285 1020.195 923.637 C 1023.602 923.281, 1026.691 923.330, 1027.060 923.745 C 1027.428 924.160, 1032.335 939.800, 1037.964 958.500 C 1043.594 977.200, 1053.968 1010.950, 1061.019 1033.500 C 1068.070 1056.050, 1080.215 1095.200, 1088.008 1120.500 C 1098.747 1155.363, 1102.843 1167.347, 1104.928 1170 C 1109.361 1175.641, 1115.140 1178.281, 1124.200 1178.805 C 1139.311 1179.680, 1145.883 1174.633, 1150.878 1158.318 C 1152.532 1152.918, 1164.059 1114.525, 1176.495 1073 C 1188.931 1031.475, 1204.099 981.188, 1210.200 961.250 L 1221.294 925 1225.022 925 C 1227.072 925, 1230.156 925.281, 1231.875 925.625 L 1235 926.250 1235 1045.665 C 1235 1162.650, 1235.040 1165.159, 1236.977 1168.956 C 1239.566 1174.030, 1243.369 1176.623, 1251.146 1178.618 C 1258.669 1180.547, 1269.327 1180.059, 1275.737 1177.491 C 1280.886 1175.428, 1285.526 1170.369, 1286.940 1165.277 C 1287.652 1162.715, 1287.991 1110.344, 1287.994 1002.432 C 1288.001 823.406, 1288.539 836.063, 1280.592 828.500 C 1271.060 819.430, 1244.323 813.785, 1228.250 817.450 M 1369.718 817.028 C 1360.752 819.289, 1355.801 824.039, 1354.089 832.020 C 1352.607 838.929, 1352.600 1157.551, 1354.081 1163.980 C 1355.469 1170.005, 1358.964 1174.319, 1364.723 1177.116 C 1371.046 1180.187, 1386.915 1180.497, 1394.186 1177.692 C 1400.499 1175.256, 1405.675 1169.415, 1406.471 1163.828 C 1406.810 1161.448, 1406.955 1085.217, 1406.794 994.427 L 1406.500 829.353 1404 825.650 C 1400.107 819.883, 1392.893 816.821, 1382.231 816.411 C 1377.429 816.226, 1371.798 816.504, 1369.718 817.028 M 1513.393 817.022 C 1495.670 820.215, 1484.897 826.513, 1481.326 835.768 C 1479.585 840.279, 1479.500 848.050, 1479.500 1002.500 L 1479.500 1164.500 1481.770 1168.749 C 1484.675 1174.187, 1490.022 1177.699, 1497.543 1179.106 C 1510.975 1181.620, 1524.934 1177.855, 1530 1170.350 L 1532.500 1166.647 1532.761 1040.420 L 1533.023 914.194 1539.073 913.492 C 1542.400 913.105, 1545.269 912.949, 1545.447 913.145 C 1545.625 913.340, 1567.671 968.127, 1594.438 1034.893 C 1621.205 1101.659, 1643.943 1157.929, 1644.968 1159.938 C 1647.261 1164.432, 1654.419 1171.153, 1659.879 1173.938 C 1675.802 1182.062, 1705.913 1180.025, 1721.466 1169.773 C 1726.960 1166.151, 1730.458 1161.610, 1731.984 1156.118 C 1732.638 1153.762, 1732.983 1096.669, 1732.972 992.500 C 1732.957 839.076, 1732.880 832.336, 1731.110 828.500 C 1727.541 820.767, 1721.172 817.161, 1709.526 816.280 C 1695.908 815.251, 1685.538 819.400, 1681.943 827.316 C 1680.110 831.354, 1680.043 835.868, 1680.022 956.705 L 1680 1081.909 1676.750 1082.411 C 1674.963 1082.687, 1672.050 1083.078, 1670.278 1083.279 L 1667.057 1083.645 1625.394 979.073 C 1602.479 921.558, 1580.366 866.051, 1576.252 855.724 C 1568.142 835.361, 1564.290 829.039, 1557.040 824.185 C 1547.577 817.851, 1527.281 814.520, 1513.393 817.022 M 761.500 1035.340 C 754.809 1037.555, 751.650 1039.598, 746.648 1044.945 C 739.459 1052.631, 737.511 1057.649, 737.505 1068.500 C 737.501 1076.278, 737.881 1078.315, 740.307 1083.500 C 743.928 1091.238, 751.290 1098.214, 758.812 1101.036 C 766.508 1103.924, 779.346 1103.549, 786.076 1100.240 C 793.103 1096.785, 798.303 1091.774, 802.070 1084.826 C 805.292 1078.883, 805.500 1077.925, 805.499 1069 C 805.498 1057.637, 803.650 1052.748, 796.445 1045.045 C 789.850 1037.994, 782.768 1034.740, 773.139 1034.336 C 768.603 1034.146, 763.875 1034.553, 761.500 1035.340" stroke="none" fill="#000000" fill-rule="evenodd"/>
</svg>